<?xml version="1.0" encoding="iso-8859-1"?>
<!-- Generator: Adobe Illustrator 19.0.0, SVG Export Plug-In . SVG Version: 6.00 Build 0)  -->
<svg version="1.1" id="Capa_1" xmlns="http://www.w3.org/2000/svg" xmlns:xlink="http://www.w3.org/1999/xlink" x="0px" y="0px"
	 viewBox="0 0 426.667 426.667" style="enable-background:new 0 0 426.667 426.667;" xml:space="preserve">
<g>
	<g>
		<g>
			<path d="M213.333,85.333V0L106.667,106.667l106.667,106.667V128c70.4,0,128,57.6,128,128s-57.6,128-128,128s-128-57.6-128-128
				H42.667c0,93.867,76.8,170.667,170.667,170.667S384,349.867,384,256S307.2,85.333,213.333,85.333z"/>
			<path d="M236.8,318.933c4.267,1.067,7.467,2.133,12.8,2.133c5.333,0,9.6,0,12.8-2.133c3.2-2.133,6.4-4.267,9.6-7.467
				s5.333-7.467,6.4-11.733s2.133-10.667,2.133-17.067v-16c0-6.4-1.067-12.8-2.133-17.067s-4.267-8.533-6.4-11.733
				c-2.133-3.2-5.333-6.4-9.6-7.467c-4.267-1.067-7.467-2.133-12.8-2.133c-5.333,0-9.6,0-12.8,2.133c-3.2,2.133-6.4,4.267-9.6,7.467
				s-5.333,7.467-6.4,11.733c-1.067,4.267-2.133,10.667-2.133,17.067v16c0,6.4,1.067,12.8,2.133,17.067
				c1.067,4.267,4.267,8.533,6.4,11.733S232.533,317.867,236.8,318.933z M237.867,264.533c0-4.267,1.067-8.533,1.067-10.667
				c0-2.133,1.067-5.333,2.133-6.4c1.067-1.067,3.2-2.133,4.267-3.2c1.067-1.067,3.2-1.067,5.333-1.067s3.2,1.067,5.333,1.067
				c2.133,0,3.2,2.133,4.267,3.2c1.067,1.067,1.067,3.2,2.133,6.4c1.067,3.2,1.067,6.4,1.067,10.667V284.8
				c0,4.267-1.067,8.533-1.067,10.667s-1.067,5.333-2.133,6.4c-1.067,1.067-3.2,2.133-4.267,3.2c-1.067,1.067-3.2,1.067-5.333,1.067
				s-3.2-1.067-5.333-1.067c-2.133,0-3.2-2.133-4.267-3.2c-1.067-1.067-1.067-3.2-2.133-6.4s-1.067-6.4-1.067-10.667V264.533z"/>
			<polygon points="189.867,320 189.867,228.267 187.733,228.267 150.4,242.133 150.4,257.067 171.733,250.667 171.733,320 			"/>
		</g>
	</g>
</g>
<g>
</g>
<g>
</g>
<g>
</g>
<g>
</g>
<g>
</g>
<g>
</g>
<g>
</g>
<g>
</g>
<g>
</g>
<g>
</g>
<g>
</g>
<g>
</g>
<g>
</g>
<g>
</g>
<g>
</g>
</svg>
