<svg fill="white" height="16" viewBox="0 -8 512.00013 512" width="16" xmlns="http://www.w3.org/2000/svg"><path d="m507.609375 132.925781-128.535156-128.53125c-5.855469-5.859375-15.355469-5.859375-21.210938 0l-63.945312 63.941407c24.421875 4.371093 46.902343 16.050781 64.8125 33.960937l100.359375 100.359375 48.515625-48.515625c5.859375-5.859375 5.859375-15.355469.003906-21.214844zm0 0"></path><path d="m337.515625 123.511719c-17.476563-17.480469-40.726563-27.109375-65.449219-27.109375h-25.917968l-92.011719-92.011719c-5.859375-5.851563-15.359375-5.851563-21.210938 0l-128.539062 128.539063c-5.847657 5.851562-5.847657 15.351562 0 21.210937l75.941406 75.941406v57.621094l43.347656-43.363281c11.742188-11.738282 27.351563-18.199219 43.953125-18.199219 16.597656 0 32.207032 6.460937 43.949219 18.199219 11.199219 11.191406 17.21875 25.628906 18.058594 40.332031 7.140625 3.078125 13.710937 7.507813 19.378906 13.179687 11.203125 11.199219 17.222656 25.640626 18.0625 40.320313 7.140625 3.078125 13.710937 7.507813 19.378906 13.179687 8.308594 8.308594 13.761719 18.390626 16.371094 29.039063 10.929687 2.660156 20.949219 8.28125 29.097656 16.429687 11.730469 11.742188 18.203125 27.351563 18.203125 43.949219 0 9.371094-2.0625 18.421875-5.972656 26.640625 8.390625-1.519531 16.390625-5.550781 22.859375-12.007812 19.472656-19.472656 11.160156-42.980469 9.703125-46.671875 22.9375-9.28125 32.578125-34.789063 24.097656-56.238281 19.460938-7.871094 33.902344-31.453126 24.101563-56.230469 28.609375-11.582031 36.429687-48.921875 14.410156-70.941407zm0 0"></path><path d="m265.238281 418.03125c12.558594-12.554688 12.558594-32.914062 0-45.46875-12.554687-12.558594-32.914062-12.558594-45.46875 0l8.03125-8.03125c12.558594-12.558594 12.558594-32.914062 0-45.472656-12.554687-12.554688-32.914062-12.554688-45.46875 0l8.035157-8.035156c12.554687-12.554688 12.554687-32.914063 0-45.46875-12.558594-12.554688-32.914063-12.554688-45.46875 0l-40.011719 40.007812c-12.554688 12.554688-12.554688 32.914062 0 45.46875 12.558593 12.558594 32.914062 12.558594 45.472656 0-12.558594 12.558594-12.558594 32.914062 0 45.472656 12.554687 12.554688 32.914063 12.554688 45.46875 0-12.554687 12.554688-12.554687 32.914063 0 45.46875 12.554687 12.554688 32.914063 12.554688 45.46875 0-12.554687 12.554688-12.554687 32.914063 0 45.46875 12.558594 12.558594 32.914063 12.558594 45.472656 0l23.941407-23.941406c12.554687-12.554688 12.554687-32.914062 0-45.46875-12.558594-12.554688-32.914063-12.554688-45.472657 0zm0 0"></path></svg>
