<svg fill="white" xmlns="http://www.w3.org/2000/svg" viewBox="0 0 21.623 21.623" xml:space="preserve"><path d="M21.402,7.896c-0.382-0.958-1.212-1.679-2.535-2.205c-0.107-0.043-0.221-0.08-0.338-0.113c-1.181-0.329-2.679-0.13-3.761,0.735c-0.479-1.3-1.657-2.244-2.837-2.574c-0.118-0.033-0.235-0.059-0.348-0.078c-1.405-0.235-2.488-0.045-3.31,0.576C7.456,4.853,6.966,5.87,6.812,7.26c-0.371,3.376,4.163,10.225,4.356,10.514c0.088,0.132,0.217,0.222,0.361,0.262c0.144,0.041,0.302,0.03,0.446-0.039c0.313-0.148,7.685-3.678,9.112-6.759C21.674,9.969,21.78,8.845,21.402,7.896z M20.095,11.501c0,0,0.735-3.53-2.217-4.849C17.878,6.651,21.724,7.141,20.095,11.501z M6.085,7.825C6.09,7.787,6.096,7.751,6.1,7.713c-0.728,0.26-1.427,0.879-1.699,1.701c-0.722-0.54-1.7-0.638-2.46-0.398c-0.075,0.023-0.149,0.051-0.217,0.08c-0.851,0.369-1.375,0.855-1.603,1.486c-0.226,0.625-0.134,1.354,0.275,2.167c0.994,1.974,5.894,4.106,6.102,4.196c0.095,0.04,0.198,0.044,0.29,0.015c0.093-0.03,0.175-0.091,0.23-0.18c0.052-0.084,0.617-1.011,1.207-2.207C7.051,12.337,5.89,9.601,6.085,7.825z M1.231,12.694c-1.237-1.237,0-2.554,0-2.554C0.37,11.646,1.231,12.694,1.231,12.694z"></path></svg>
