<svg id="Layer_1" enable-background="new 0 0 512 512" height="512" viewBox="0 0 512 512" width="512" xmlns="http://www.w3.org/2000/svg"><g><path d="m245.002 21.996c-135.311 0-245.002 109.691-245.002 245.002 0 19.013 2.166 37.52 6.265 55.288l148.389 172.51c27.957 11.098 58.438 17.204 90.348 17.204 135.311 0 245.002-109.691 245.002-245.002s-109.691-245.002-245.002-245.002z" fill="#e80054"/><g><path d="m394.253 82.858c-2.488 0-4.922-1.237-6.349-3.496l-17.992-28.487c-2.212-3.502-1.166-8.134 2.336-10.346 3.504-2.211 8.135-1.165 10.346 2.336l17.992 28.487c2.212 3.502 1.166 8.134-2.336 10.346-1.243.785-2.629 1.16-3.997 1.16z" fill="#bec8f7"/></g><g><path d="m426.264 63.174c-2.488 0-4.922-1.237-6.349-3.496l-17.991-28.488c-2.212-3.502-1.166-8.134 2.336-10.346 3.504-2.212 8.135-1.165 10.346 2.336l17.992 28.487c2.212 3.502 1.166 8.134-2.336 10.346-1.243.786-2.629 1.161-3.998 1.161z" fill="#bec8f7"/></g><g><path d="m458.276 43.488c-2.488 0-4.922-1.237-6.349-3.496l-17.992-28.487c-2.212-3.502-1.166-8.134 2.336-10.346 3.503-2.211 8.135-1.165 10.346 2.336l17.992 28.487c2.212 3.502 1.166 8.134-2.336 10.346-1.243.785-2.628 1.16-3.997 1.16z" fill="#bec8f7"/></g><g><path d="m372.948 63.505c-2.497 0-4.937-1.245-6.361-3.516-2.201-3.509-1.141-8.138 2.368-10.339l13.335-8.364c3.508-2.201 8.137-1.141 10.339 2.368 2.201 3.509 1.141 8.138-2.368 10.339l-13.335 8.364c-1.238.777-2.617 1.148-3.978 1.148z" fill="#e9efff"/></g><g><path d="m404.96 43.82c-2.496 0-4.937-1.245-6.361-3.516-2.201-3.509-1.141-8.138 2.368-10.339l13.335-8.365c3.509-2.198 8.138-1.141 10.339 2.368s1.141 8.138-2.368 10.339l-13.335 8.365c-1.239.777-2.617 1.148-3.978 1.148z" fill="#e9efff"/></g><g><path d="m436.971 24.135c-2.497 0-4.937-1.245-6.361-3.516-2.201-3.509-1.141-8.138 2.368-10.339l13.335-8.364c3.508-2.2 8.137-1.142 10.339 2.368 2.201 3.509 1.141 8.138-2.368 10.339l-13.335 8.364c-1.238.777-2.616 1.148-3.978 1.148z" fill="#e9efff"/></g><path d="m101.614 299.283c5.672 7.486 14.673 11.694 26.767 12.521-.017.707.017 1.594.155 2.549 6.847-7.564 12.656-16.155 17.18-25.597 3.376-7.046 7.039-13.757 10.887-19.948 2.49-4.007 6.786-6.406 11.493-6.418 3.73-.009 7.219 1.46 9.797 4.037.144.144 1.086.291 2.505.442-7.105-12.24-7.664-27.799-.173-40.927 3.24-5.678 7.134-11.704 11.801-17.852 11.764-15.5-5.819-36.093-23.047-27.046-21.499 11.291-44.714 32.326-63.255 70.906-2.927 6.091-6.411 11.845-10.378 17.206-.845 6.1-1.592 19.755 6.268 30.127z" fill="#85a5f7"/><path d="m110.481 416.254-31.451-31.451c-6.243-6.243-8.896-15.129-7.096-23.77 1.799-8.638 7.774-15.724 15.985-18.956l1.319-.518c15.79-6.213 29.652-16.097 40.653-28.733-.062-1.413.106-2.435.106-2.435-42.528-1.858-32.636-44.053-32.636-44.053l-.02-.009c-11.781 17.059-28.349 30.411-47.868 38.092l-31.939 12.57c-3.928 1.546-7.683 3.323-11.27 5.295 6.257 27.127 17.03 52.522 31.467 75.372l62.158 66.733c6.29 4.631 12.802 8.978 19.531 13.003 1.032-4.559 2.076-8.57 3.098-11.824 5.491-17.503.879-36.4-12.037-49.316z" fill="#567ee2"/><g fill="#e9efff"><path d="m251.406 356.201c-.197.076-.395.151-.594.225-20.982 7.859-43.592-6.899-45.119-29.252l-.077-1.123-28.684 28.684c.088.114.183.236.269.347l-10.031 15.92-.054.276c-.181.935-4.268 23.069 9.548 39.814 7.208 8.737 17.902 14.274 31.883 16.562 22.288-8.863 47.454-23.764 62.25-48.355 7.839-13.027-5.195-28.539-19.391-23.098z"/><path d="m131.02 319.901c2.091 2.212 5.228 3.11 9.324 2.663 1.528-.168 3.374.372 5.417 1.414l45.158-45.158c-3.961-3.025-7.24-6.67-9.781-10.713-6.001-9.548-19.856-9.671-25.809-.093-3.794 6.104-7.463 12.784-10.965 20.091-4.227 8.821-9.621 16.939-15.982 24.157.008 2.094.428 5.302 2.638 7.639z"/></g><path d="m168.589 371.564 10.436-16.564s-.373-.492-1.028-1.33l-2.943 2.943-30.964-30.964 2.759-2.759c-2.474-1.324-4.751-2.025-6.668-1.817-12.177 1.323-10.184-10.681-10.184-10.681-.011 0-.021-.001-.031-.002-11.005 13.094-25.106 23.411-41.278 29.774-.445.175-.884.348-1.317.518-18.495 7.277-23.455 31.128-9.401 45.182l31.451 31.451c12.509 12.509 16.961 30.927 11.665 47.806-1.098 3.501-2.217 7.282-3.316 11.291 11.687 7.116 24.018 13.277 36.883 18.384.657-2.542 1.232-5.155 1.702-7.851 4.605-26.432 22.896-48.357 48.049-57.697 2.259-.839 4.558-1.741 6.881-2.708-51.992-6.879-42.696-54.976-42.696-54.976z" fill="#d3dcfb"/><path d="m155.316 390.614-45.227-45.227c-5.715-5.715-14.982-5.715-20.697 0s-5.715 14.982 0 20.697l45.227 45.227c5.715 5.715 14.982 5.715 20.697 0 5.716-5.715 5.716-14.981 0-20.697z" fill="#543e5b"/><path d="m105.76 440.171-25.159-25.159-6.504 9.595s-9.126.062-10.321 7.22c10.936 12.017 23.038 22.952 36.15 32.603 2.132-.69 4.141-1.869 5.834-3.562 5.715-5.716 5.715-14.982 0-20.697z" fill="#6c5475"/><path d="m81.601 416.012-21.068-21.068c-5.715-5.715-14.982-5.715-20.697 0-.831.831-1.526 1.743-2.116 2.703 7.944 12.578 17.01 24.373 27.042 35.265 1.138-7.241 10.334-7.304 10.334-7.304z" fill="#543e5b"/><path d="m428.842 73.633c-7.458 5.907-16.757 13.319-27.64 22.033-4.577 3.665-7.369 8.901-7.86 14.744-.49 5.845 1.388 11.475 5.291 15.853l12.108 13.585c4.838-.183 10.148.203 15.756 1.552 5.424 1.304 11.028-1.316 13.656-6.236 5.857-10.964 14.875-30.842 17.372-53.103.28-2.499 1.358-4.998 3.022-7.127-7.687-5.53-19.812-10.721-31.705-1.301z" fill="#e9efff"/><path d="m476.304 69.723c10.29 3 21.971-.063 29.417-9.188 8.571-10.505 8.338-25.368-.524-35.629-9.406-10.89-25.037-12.589-36.385-5.097l-100.874 63.275c-3.443 2.16-5.663 5.845-5.885 9.904-.356 6.52-1.951 16.65-8.058 22.756l30.964 30.964s11.119-6.652 27.084-6.901l-12.665-14.21c-7.687-8.624-6.571-21.931 2.448-29.151 8.422-6.742 18.73-14.975 27.636-22.03 11.46-9.077 23.103-4.076 30.517 1.288 3.274-4.76 9.388-8.003 16.325-5.981z" fill="#d3dcfb"/><path d="m116.1 214.284h296.85v43.79h-296.85z" fill="#6c5475" transform="matrix(.707 -.707 .707 .707 -89.526 256.223)"/><g><path d="m384.96 152.708c-1.536 0-3.071-.586-4.243-1.758l-30.964-30.963c-2.343-2.344-2.343-6.143 0-8.485 2.343-2.344 6.142-2.343 8.485-.001l30.964 30.965c2.343 2.343 2.343 6.142 0 8.484-1.171 1.172-2.707 1.758-4.242 1.758z" fill="#977ca5"/></g><g><path d="m358.86 178.808c-1.536 0-3.071-.586-4.243-1.758l-30.964-30.965c-2.343-2.343-2.343-6.142 0-8.485 2.343-2.342 6.142-2.343 8.485.001l30.964 30.965c2.343 2.343 2.343 6.142 0 8.485-1.17 1.171-2.706 1.757-4.242 1.757z" fill="#977ca5"/></g><g><path d="m332.762 204.906c-1.536 0-3.071-.586-4.243-1.757l-30.964-30.965c-2.343-2.343-2.343-6.142 0-8.484 2.343-2.344 6.142-2.344 8.485 0l30.964 30.963c2.343 2.344 2.343 6.143 0 8.485-1.171 1.172-2.707 1.758-4.242 1.758z" fill="#977ca5"/></g><g><path d="m306.663 231.005c-1.536 0-3.071-.586-4.243-1.758l-30.964-30.963c-2.343-2.344-2.343-6.143 0-8.485 2.343-2.344 6.142-2.343 8.485-.001l30.964 30.965c2.343 2.343 2.343 6.142 0 8.484-1.171 1.172-2.707 1.758-4.242 1.758z" fill="#977ca5"/></g><g><path d="m280.564 257.104c-1.536 0-3.071-.586-4.243-1.758l-30.964-30.965c-2.343-2.343-2.343-6.142 0-8.485s6.142-2.342 8.485.001l30.964 30.965c2.343 2.343 2.343 6.142 0 8.485-1.171 1.172-2.707 1.757-4.242 1.757z" fill="#977ca5"/></g><g><path d="m254.465 283.203c-1.536 0-3.071-.586-4.243-1.757l-30.964-30.965c-2.343-2.343-2.343-6.142 0-8.484 2.343-2.344 6.142-2.344 8.485 0l30.964 30.963c2.343 2.344 2.343 6.143 0 8.485-1.171 1.172-2.706 1.758-4.242 1.758z" fill="#977ca5"/></g><g><path d="m228.366 309.302c-1.536 0-3.071-.586-4.243-1.758l-30.964-30.963c-2.343-2.344-2.343-6.143 0-8.485 2.343-2.344 6.142-2.343 8.485-.001l30.964 30.965c2.343 2.343 2.343 6.142 0 8.484-1.171 1.172-2.707 1.758-4.242 1.758z" fill="#977ca5"/></g><g><path d="m202.267 335.4c-1.536 0-3.071-.586-4.243-1.758l-30.964-30.964c-2.343-2.343-2.343-6.142 0-8.484 2.343-2.344 6.143-2.344 8.485 0l30.964 30.964c2.343 2.343 2.343 6.142 0 8.484-1.171 1.172-2.707 1.758-4.242 1.758z" fill="#977ca5"/></g><g><path d="m94.822 442.846c-1.536 0-3.071-.586-4.243-1.758-2.343-2.343-2.343-6.142 0-8.484l290.138-290.138c2.343-2.344 6.143-2.344 8.485 0 2.343 2.343 2.343 6.142 0 8.484l-290.137 290.138c-1.172 1.172-2.707 1.758-4.243 1.758z" fill="#ab91bc"/></g><g><path d="m63.858 411.882c-1.536 0-3.071-.586-4.243-1.758-2.343-2.343-2.343-6.142 0-8.484l290.138-290.138c2.343-2.344 6.143-2.344 8.485 0 2.343 2.343 2.343 6.142 0 8.484l-290.138 290.138c-1.171 1.172-2.707 1.758-4.242 1.758z" fill="#ab91bc"/></g><g><path d="m79.339 427.364c-1.536 0-3.071-.586-4.243-1.758-2.343-2.343-2.343-6.142 0-8.484l290.138-290.138c2.343-2.344 6.143-2.344 8.485 0 2.343 2.343 2.343 6.142 0 8.484l-290.137 290.138c-1.171 1.172-2.707 1.758-4.243 1.758z" fill="#ab91bc"/></g><g fill="#ff4155"><path d="m0 266.998c0 2.731.057 5.448.146 8.157 28.243-2.578 55.95-21.342 69.732-50.412 42.148-88.9 81.648-78.034 157.648-88.537 83.432-11.53 75.705-73.867 63.788-109.819-14.999-2.87-30.477-4.39-46.312-4.39-135.311-.001-245.002 109.69-245.002 245.001z"/><path d="m208.718 509.319c11.84 1.759 23.954 2.681 36.284 2.681 135.311 0 245.002-109.691 245.002-245.002 0-26.989-4.376-52.952-12.437-77.236-42.794 6.755-118.297 24.928-151.042 71.353-47 66.635 7.631 105.898-12.685 148.767-16.09 33.952-101.941 34.667-105.122 99.437z"/></g></g></svg>