<svg id="Layer_1" enable-background="new 0 0 512.055 512.055" height="512" viewBox="0 0 512.055 512.055" width="512" xmlns="http://www.w3.org/2000/svg"><path d="m451.907 291.782c-2.004-66.069-36.815-126.046-92.714-160.62 5.44-60.718-42.483-112.906-103.164-112.906-60.617 0-108.611 52.118-103.164 112.906-55.899 34.574-90.71 94.551-92.714 160.62-55.539 25.797-76.6 93.215-46.23 145.817 30.16 52.24 99.211 68.162 149.361 32.889 57.764 31.076 127.717 31.083 185.493 0 50.151 35.274 119.194 19.36 149.361-32.889 30.311-52.497 9.423-119.962-46.229-145.817zm-195.878-233.526c35.063 0 63.588 28.525 63.588 63.587s-28.525 63.588-63.588 63.588-63.588-28.525-63.588-63.588c.001-35.061 28.526-63.587 63.588-63.587zm-207.466 359.344c-17.572-30.436-7.164-69.288 23.274-86.863 30.452-17.581 69.299-7.148 86.863 23.275 17.53 30.365 7.09 69.331-23.275 86.863-30.364 17.531-69.332 7.089-86.862-23.275zm143.313 22.426c19.194-31.356 21.104-71.998 1.465-106.014-19.73-34.176-55.809-52.738-92.504-51.799 4.441-44.686 27.803-84.98 64.117-111.05 17.56 32.297 51.8 54.269 91.076 54.269s73.516-21.972 91.076-54.269c36.314 26.07 59.676 66.365 64.117 111.05-36.601-.937-72.724 17.536-92.504 51.799-19.639 34.016-17.73 74.658 1.465 106.014-40.654 18.354-87.627 18.366-128.308 0zm271.62-22.426c-17.531 30.363-56.498 40.806-86.862 23.275-30.365-17.532-40.806-56.498-23.275-86.863 17.569-30.432 56.421-40.85 86.863-23.275 30.436 17.573 40.848 56.424 23.274 86.863z"/></svg>