<?xml version="1.0" encoding="iso-8859-1"?>
<!-- Generator: Adobe Illustrator 19.0.0, SVG Export Plug-In . SVG Version: 6.00 Build 0)  -->
<svg version="1.1" id="Capa_1" xmlns="http://www.w3.org/2000/svg" xmlns:xlink="http://www.w3.org/1999/xlink" x="0px" y="0px"
	 viewBox="0 0 512.001 512.001" style="enable-background:new 0 0 512.001 512.001;" xml:space="preserve">
<g>
	<g>
		<path d="M255.692,114.334c-79.438,0-144.065,64.627-144.065,144.065s64.627,144.065,144.065,144.065
			s144.065-64.627,144.065-144.065S335.13,114.334,255.692,114.334z M368.603,243.322h-55.147
			c-1.125-23.739-4.898-46.33-11.092-66.051c-3.143-10.007-6.821-19.026-11.003-27.056
			C332.147,163.696,362.8,199.637,368.603,243.322z M142.781,273.477h55.149c1.126,23.74,4.897,46.331,11.092,66.052
			c3.143,10.007,6.821,19.026,11.003,27.055C179.239,353.103,148.585,317.162,142.781,273.477z M209.022,177.27
			c-6.194,19.722-9.967,42.312-11.092,66.051h-55.148c5.803-43.685,36.457-79.627,77.243-93.107
			C215.843,158.243,212.165,167.262,209.022,177.27z M255.693,366.387c-15.151-18.858-25.464-53.355-27.57-92.912h55.141
			C281.156,313.034,270.844,347.53,255.693,366.387z M228.123,243.322c2.107-39.557,12.42-74.053,27.57-92.912
			c15.151,18.858,25.463,53.355,27.57,92.912H228.123z M291.36,366.583c4.181-8.029,7.859-17.048,11.003-27.055
			c6.195-19.722,9.967-42.312,11.092-66.052h55.147C362.8,317.162,332.147,353.102,291.36,366.583z"/>
	</g>
</g>
<g>
	<g>
		<path d="M312.89,474.53c-53.613,14.021-110.426,7.746-159.97-17.672c-49.891-25.596-88.282-68.611-108.101-121.12
			c-18.354-48.63-19.542-100.392-3.436-149.692c11.942-36.555,33.142-69.509,60.999-95.462l-5.138,42.64l29.938,3.609l11.327-93.99
			l-92.81-10.974l-3.541,29.946l41.603,4.92C51.239,96.42,26.522,134.437,12.72,176.682c-8.855,27.105-13.104,55.245-12.628,83.637
			c0.493,29.38,6.049,58.337,16.516,86.069c22.465,59.521,65.987,108.283,122.548,137.301
			c36.557,18.754,76.608,28.312,116.889,28.312c21.594,0,43.256-2.747,64.475-8.298L312.89,474.53z"/>
	</g>
</g>
<g>
	<g>
		<path d="M496.473,343.459c20.968-57.4,20.612-120.548-1-177.809C472.07,103.642,426.264,53.749,366.492,25.161
			C306.911-3.335,239.593-7.787,176.937,12.627l9.342,28.671c55.258-18.004,114.637-14.073,167.201,11.067
			c52.727,25.218,93.134,69.231,113.78,123.934c19.062,50.506,19.378,106.197,0.888,156.814
			c-14.621,40.026-40.207,74.946-73.408,100.816l5.589-46.375l-29.938-3.609l-11.328,93.99l92.809,10.974l3.541-29.946
			l-38.058-4.501C453.006,425.49,480.51,387.158,496.473,343.459z"/>
	</g>
</g>
<g>
</g>
<g>
</g>
<g>
</g>
<g>
</g>
<g>
</g>
<g>
</g>
<g>
</g>
<g>
</g>
<g>
</g>
<g>
</g>
<g>
</g>
<g>
</g>
<g>
</g>
<g>
</g>
<g>
</g>
</svg>
