<svg fill="white" xmlns="http://www.w3.org/2000/svg" viewBox="0 0 19 16"><path class="st0" d="M17.7 6.3c-.4.5-.6.3-.5 0 .3-.8 1.2-2-1.2-2.4V13c0 1.7-1.3 3-3 3s-3-1.3-3-3 1.3-3 3-3c.4 0 .7.1 1 .2V1c0-.3.1-.6.3-.7V0H16c-.3 2.5 4.3 2.6 1.7 6.3zM13 12c-.6 0-1 .4-1 1s.4 1 1 1 1-.4 1-1-.4-1-1-1zm2.9 0s-.1 0 0 0c0 .2 0 .3.1.4l-.1-.4zM9.2 7H6v3.2c0 .5-.3.8-.8.8h-.4c-.5 0-.8-.3-.8-.7V7H.8C.3 7 0 6.7 0 6.3v-.5c0-.5.3-.8.8-.8H4V1.8c0-.5.3-.8.8-.8h.5c.4 0 .7.3.7.8V5h3.2c.5 0 .8.3.8.8v.5c0 .4-.3.7-.8.7z"></path></svg>
