<svg id="Layer_1" enable-background="new 0 0 512.003 512.003" height="512" viewBox="0 0 512.003 512.003" width="512" xmlns="http://www.w3.org/2000/svg"><path d="m317.438 26.236c-10.501-8.89-24.299-12.688-37.854-10.418-5.553.929-11.269 1.424-16.58 1.431-18.444 0-36.896-4.193-43.272-8.092-18.847-11.524-41.599-11.954-60.866-1.153-19.267 10.802-30.77 30.438-30.77 52.526v147.246c-54.614-34.65-128.731 6.374-128.092 71.473 4.338 110.113 160.859 111.951 167.999 2.202v-220.922c0-10.689 7.316-15.894 10.423-17.636 3.107-1.741 11.315-5.19 20.436.387 15.789 9.656 43.633 13.968 64.142 13.968 7.469-.01 15.502-.694 23.182-1.979 2.653-.441 4.523.748 5.408 1.497.9.762 2.41 2.451 2.41 5.198v50.332c0 2.996-1.936 5.652-4.708 6.461-7.716 2.251-17.403 3.491-27.28 3.491h-.01c-14.487-.001-31.177-5.8-31.343-5.859-10.4-3.671-21.813 1.769-25.507 12.167-3.695 10.409 1.746 21.844 12.155 25.54 2.35.834 23.566 8.151 44.69 8.153h.014c13.759 0 27.067-1.761 38.484-5.092 19.727-5.755 33.504-24.203 33.504-44.86v-50.334c0-13.792-6.038-26.814-16.565-35.727zm-233.435 297.012c-24.262 0-44-19.738-44-44 2.417-58.372 85.592-58.355 88 0 0 24.262-19.738 44-44 44zm411.435-128.012c-10.501-8.89-24.297-12.686-37.854-10.418-5.553.929-11.295 1.424-16.606 1.431h-.16c-18.444 0-36.71-4.193-43.086-8.092-18.847-11.524-41.598-11.954-60.866-1.153-19.267 10.802-30.77 30.438-30.77 52.526v127.246c-54.613-34.649-128.73 6.375-128.091 71.474 4.337 110.1 160.842 111.967 167.971 2.202.079-.724.12-200.922.12-200.922 0-10.689 7.225-15.894 10.331-17.636 3.107-1.741 11.315-5.19 20.436.387 15.789 9.656 43.467 13.968 63.976 13.968h.192c7.469-.01 15.476-.694 23.155-1.979 2.652-.44 4.524.748 5.408 1.497.9.762 2.41 2.451 2.41 5.198v50.332c0 2.996-1.936 5.652-4.708 6.461-7.716 2.251-17.403 3.491-27.28 3.491h-.01c-14.487-.001-31.177-5.8-31.343-5.859-10.399-3.673-21.813 1.768-25.507 12.167-3.695 10.409 1.746 21.844 12.155 25.54 2.35.834 23.566 8.151 44.69 8.153h.014c13.759 0 27.067-1.761 38.484-5.092 19.727-5.755 33.504-24.203 33.504-44.86v-50.332c0-13.795-6.038-26.817-16.565-35.73zm-233.435 277.012c-24.262 0-44-19.738-44-44 2.417-58.372 85.592-58.355 88 0 0 24.262-19.738 44-44 44z"/></svg>