<svg height="512pt" viewBox="0 0 512 512" width="512pt" xmlns="http://www.w3.org/2000/svg"><path d="m512 30.90625v450.1875c0 17.070312-13.835938 30.90625-30.90625 30.90625h-450.1875c-17.070312 0-30.90625-13.835938-30.90625-30.90625v-450.1875c0-17.070312 13.835938-30.90625 30.90625-30.90625h450.1875c17.070312 0 30.90625 13.835938 30.90625 30.90625zm0 0" fill="#f86091"/><path d="m512 30.90625v450.1875c0 17.070312-13.835938 30.90625-30.90625 30.90625h-450.1875c-17.070312 0-30.90625-13.835938-30.90625-30.90625v-46.953125c397.195312-117.050781 390.808594-371.402344 391.40625-434.140625h89.6875c17.070312 0 30.90625 13.835938 30.90625 30.90625zm0 0" fill="#7664f4"/><path d="m481.09375 512c17.070312 0 30.90625-13.835938 30.90625-30.90625v-450.1875c0-17.070312-13.835938-30.90625-30.90625-30.90625h-56.019531c-.855469 91.007812-47.96875 383.578125-329.195313 512zm0 0" fill="#0dd1ff"/><path d="m512 30.90625v450.1875c0 17.070312-13.835938 30.90625-30.90625 30.90625h-199.03125c152.582031-175.789062 169.96875-420.992188 170.824219-512h28.207031c17.070312 0 30.90625 13.835938 30.90625 30.90625zm0 0" fill="#00b1f7"/><path d="m64.222656 512h-33.316406c-17.070312 0-30.90625-13.835938-30.90625-30.90625v-450.1875c0-17.070312 13.835938-30.90625 30.90625-30.90625h33.316406c-17.070312 0-30.90625 13.835938-30.90625 30.90625v450.1875c0 17.070312 13.835938 30.90625 30.90625 30.90625zm0 0" fill="#f880a7"/><path d="m64.222656 512h-33.316406c-17.070312 0-30.90625-13.835938-30.90625-30.90625v-46.953125c11.402344-3.359375 22.507812-6.839844 33.316406-10.417969v57.371094c0 17.070312 13.835938 30.90625 30.90625 30.90625zm0 0" fill="#9992f7"/><path d="m383.414062 108.355469v228.050781l-.023437-.011719c.351563 11.230469-5.625 22.191407-16.277344 27.671875l-36.476562 18.789063c-4.398438 2.265625-9.109375 3.339843-13.734375 3.339843-10.886719 0-21.394532-5.933593-26.730469-16.289062-2.855469-5.53125-3.8125-11.527344-3.132813-17.273438 1.132813-9.582031 6.851563-18.441406 16.082032-23.203124l42.628906-21.953126c3.6875-1.90625 6.015625-5.714843 6.015625-9.867187v-116.800781c0-3.691406-1.773437-6.871094-4.441406-8.882813-2.542969-1.90625-5.902344-2.730469-9.3125-1.894531l-5.324219 1.308594-99.0625 24.320312c-4.96875 1.226563-8.460938 5.675782-8.460938 10.785156v169.621094l-.007812-.011718c.351562 11.21875-5.636719 22.179687-16.277344 27.660156l-36.480468 18.792968c-4.398438 2.265626-9.105469 3.347657-13.730469 3.347657-10.898438 0-21.40625-5.945313-26.734375-16.296875-4.179688-8.121094-4.304688-17.257813-1.121094-25.097656 2.605469-6.40625 7.4375-11.957032 14.070312-15.378907l42.621094-21.953125c3.695313-1.90625 6.027344-5.707031 6.027344-9.871094v-193.167968c0-10.230469 6.972656-19.128906 16.902344-21.570313l145.472656-35.726562c5.78125-1.421875 11.476562-.445313 16.175781 2.214843 4.191407 2.347657 7.582031 6.046876 9.527344 10.558594 1.15625 2.679688 1.804687 5.636719 1.804687 8.789063zm0 0" fill="#ffb3d2"/><path d="m130.8125 384.464844c36.28125-17.523438 67.496094-36.429688 94.351562-56.144532v47.746094l-.007812-.007812c.351562 11.21875-5.636719 22.179687-16.277344 27.660156l-36.480468 18.789062c-4.398438 2.265626-9.105469 3.347657-13.730469 3.347657-10.898438 0-21.40625-5.945313-26.734375-16.296875-4.179688-8.117188-4.304688-17.253906-1.121094-25.09375zm0 0" fill="#b1b1fc"/><path d="m383.414062 108.355469v228.050781l-.023437-.011719c.351563 11.230469-5.625 22.191407-16.277344 27.671875l-36.476562 18.789063c-4.398438 2.265625-9.109375 3.339843-13.734375 3.339843-10.886719 0-21.394532-5.933593-26.730469-16.289062-.792969-1.542969-1.441406-3.132812-1.949219-4.738281-1.316406-4.132813-1.675781-8.394531-1.183594-12.535157 1.132813-9.582031 6.851563-18.441406 16.082032-23.203124l18.832031-9.691407 23.796875-12.261719c3.6875-1.90625 6.015625-5.714843 6.015625-9.867187v-114.722656c14.824219-29.410157 24.0625-57.75 29.84375-83.320313 1.15625 2.679688 1.804687 5.636719 1.804687 8.789063zm0 0" fill="#b1b1fc"/><path d="m383.414062 200.03125v136.375l-.023437-.011719c.351563 11.230469-5.625 22.191407-16.277344 27.671875l-36.476562 18.789063c-4.398438 2.265625-9.109375 3.339843-13.734375 3.339843-10.886719 0-21.394532-5.933593-26.730469-16.289062-.792969-1.542969-1.441406-3.132812-1.949219-4.738281 12.28125-14.863281 23.488282-30.0625 33.730469-45.429688l23.796875-12.261719c3.6875-1.90625 6.015625-5.714843 6.015625-9.867187v-27.878906c12.457031-23.445313 22.910156-46.871094 31.648437-69.699219zm0 0" fill="#85f4ff"/></svg>