<svg height="24" width="24" xmlns="http://www.w3.org/2000/svg" viewBox="0 0 512 512" xml:space="preserve"><path d="M307.286,277.558c-8.284,0-15.024,6.74-15.024,15.024c0,8.284,6.74,15.024,15.024,15.024c8.285,0,15.024-6.74,15.024-15.024C322.31,284.298,315.571,277.558,307.286,277.558z"></path><path d="M187.186,277.558c-8.284,0-15.024,6.74-15.024,15.024c0,8.284,6.74,15.024,15.024,15.024s15.024-6.74,15.024-15.024C202.21,284.298,195.47,277.558,187.186,277.558z"></path><path d="M512,97.433H63.541l-4.643-59.324H0V68.11h31.153l25.793,329.548h38.067c-3.394,6.992-5.301,14.835-5.301,23.117c0,29.289,23.829,53.117,53.117,53.117c29.289,0,53.118-23.829,53.118-53.117c0-8.281-1.907-16.123-5.301-23.117h130.727c-3.394,6.992-5.301,14.835-5.301,23.117c0,29.289,23.829,53.117,53.118,53.117c29.289,0,53.117-23.829,53.117-53.117c0-8.281-1.907-16.123-5.301-23.117h36.558L512,97.433z M352.311,292.583c0,24.827-20.199,45.025-45.025,45.025c-24.827,0-45.025-20.199-45.025-45.025c0-24.828,20.199-45.025,45.025-45.025c5.267,0,10.323,0.917,15.024,2.587v-62.661h-90.099v105.099c0,24.827-20.199,45.025-45.025,45.025s-45.025-20.199-45.025-45.025c0-24.828,20.199-45.025,45.025-45.025c5.267,0,10.322,0.917,15.024,2.587v-92.662h150.101V292.583z"></path></svg>
