<?xml version="1.0" encoding="iso-8859-1"?>
<!-- Generator: Adobe Illustrator 19.0.0, SVG Export Plug-In . SVG Version: 6.00 Build 0)  -->
<svg version="1.1" id="Capa_1" xmlns="http://www.w3.org/2000/svg" xmlns:xlink="http://www.w3.org/1999/xlink" x="0px" y="0px"
	 viewBox="0 0 512 512" style="enable-background:new 0 0 512 512;" xml:space="preserve">
<g>
	<g>
		<path d="M342.362,182.448l-120,30C215.685,214.117,211,220.117,211,227v77.58c-4.695-1.665-9.742-2.58-15-2.58
			c-24.813,0-45,20.187-45,45s20.187,45,45,45s45-20.187,45-45V238.711l90-22.5v58.369c-4.695-1.665-9.742-2.58-15-2.58
			c-24.813,0-45,20.187-45,45s20.187,45,45,45s45-20.187,45-45V197C361,187.255,351.832,180.084,342.362,182.448z M196,362
			c-8.271,0-15-6.729-15-15s6.729-15,15-15s15,6.729,15,15S204.271,362,196,362z M316,332c-8.271,0-15-6.729-15-15s6.729-15,15-15
			s15,6.729,15,15S324.271,332,316,332z"/>
	</g>
</g>
<g>
	<g>
		<path d="M497,362h-46V135c0-8.284-6.716-15-15-15h-15V75c0-8.284-6.716-15-15-15h-15V15c0-8.284-6.716-15-15-15H136
			c-8.284,0-15,6.716-15,15v45h-15c-8.284,0-15,6.716-15,15v45H76c-8.284,0-15,6.716-15,15v227H15c-8.284,0-15,6.716-15,15v120
			c0,8.284,6.716,15,15,15h482c8.284,0,15-6.716,15-15V377C512,368.716,505.284,362,497,362z M151,30h210v30H151V30z M121,90h270v30
			H121V90z M91,150h330c0,12.366,0,260.797,0,272H91C91,410.823,91,162.348,91,150z M482,482H30v-90h31v45c0,8.284,6.716,15,15,15
			h360c8.284,0,15-6.716,15-15v-45h31V482z"/>
	</g>
</g>
<g>
</g>
<g>
</g>
<g>
</g>
<g>
</g>
<g>
</g>
<g>
</g>
<g>
</g>
<g>
</g>
<g>
</g>
<g>
</g>
<g>
</g>
<g>
</g>
<g>
</g>
<g>
</g>
<g>
</g>
</svg>
